#!OML:ASF F:\VICON\USERDATA\INSTALL\rory3\rory3.ASF
:FULLY-SPECIFIED
:DEGREES
426
root -9.5326 18.073 12.6292 -201.59 78.0399 158.672
lowerback 9.82224 -0.774555 -2.25822
upperback 1.12579 -1.22628 0.0288537
thorax -4.28653 -0.549147 1.46289
lowerneck -11.2704 0.466395 -12.0688
upperneck 44.8038 7.12342 2.62798
head 18.424 2.1812 5.0316
rclavicle 1.56046e-014 -1.19271e-015
rhumerus -36.666 -10.9446 -74.1433
rradius 27.7662
rwrist 6.99706
rhand -16.5346 7.56195
rfingers 7.12502
rthumb 9.68434 -22.1954
lclavicle 1.56046e-014 -1.19271e-015
lhumerus -28.063 1.26057 85.4258
lradius 37.7352
lwrist -5.54385
lhand -19.341 25.3637
lfingers 7.12502
lthumb 6.97603 55.2288
rfemur -19.9713 -4.6622 16.0449
rtibia 26.3048
rfoot -1.1291 -7.98522
rtoes 5.19457
lfemur 12.0007 -9.69884 -24.9628
ltibia 20.4075
lfoot 21.1156 -23.884
ltoes 12.3731
427
root -9.70007 18.0569 12.615 -202.009 78.1333 158.095
lowerback 9.8942 -0.768084 -2.37191
upperback 1.09489 -1.23533 -0.0323944
thorax -4.35748 -0.550927 1.46607
lowerneck -11.3074 0.47601 -11.9642
upperneck 44.7318 7.07473 2.63534
head 18.393 2.17733 5.00289
rclavicle 7.45443e-016 1.86858e-014
rhumerus -37.0536 -11.8521 -73.6462
rradius 27.6007
rwrist 7.32269
rhand -16.0873 7.41168
rfingers 7.12502
rthumb 10.1159 -22.3252
lclavicle 7.45443e-016 1.86858e-014
lhumerus -27.5335 0.592869 85.4901
lradius 38.1601
lwrist -5.2615
lhand -19.4166 25.0158
lfingers 7.12502
lthumb 6.90298 54.8832
rfemur -20.6291 -4.07972 15.825
rtibia 26.0603
rfoot -0.452383 -8.45449
rtoes 5.45772
lfemur 12.0947 -9.66708 -25.1871
ltibia 19.9468
lfoot 18.5957 -23.6833
ltoes 15.1728
428
root -9.87129 18.0318 12.595 -202.703 78.2513 157.211
lowerback 10.0098 -0.787903 -2.56995
upperback 1.02772 -1.28774 -0.0118619
thorax -4.48507 -0.571097 1.60897
lowerneck -11.4031 0.489165 -12.0052
upperneck 44.6919 7.14825 2.5269
head 18.3957 2.17954 4.97012
rclavicle -1.30701e-014 3.57812e-015
rhumerus -37.347 -12.3845 -73.1302
rradius 27.4005
rwrist 7.38526
rhand -15.7529 7.34186
rfingers 7.12502
rthumb 10.4385 -22.379
lclavicle -1.30701e-014 3.57812e-015
lhumerus -27.105 0.238361 85.6038
lradius 38.6116
lwrist -4.98571
lhand -19.7352 24.983
lfingers 7.12502
lthumb 6.5955 54.8603
rfemur -21.3141 -3.59106 15.5141
rtibia 25.7422
rfoot 0.299425 -8.79124
rtoes 6.5903
lfemur 11.9705 -9.38903 -25.4979
ltibia 19.5342
lfoot 15.8659 -23.7275
ltoes 16.2428
429
root -10.041 18.0104 12.5737 -203.505 78.3484 156.229
lowerback 10.0509 -0.80388 -2.74423
upperback 1.0245 -1.32973 -0.022995
thorax -4.50572 -0.58823 1.70197
lowerneck -11.4942 0.480064 -11.9758
upperneck 44.628 7.2084 2.31272
head 18.3961 2.17442 4.87128
rclavicle 1.49089e-015 4.77083e-015
rhumerus -37.5493 -12.7899 -72.7781
rradius 27.2164
rwrist 7.17302
rhand -15.9049 7.14796
rfingers 7.12502
rthumb 10.2919 -22.5802
lclavicle 1.49089e-015 4.77083e-015
lhumerus -26.5925 -0.0452378 85.6402
lradius 39.0324
lwrist -4.99402
lhand -19.5721 24.7348
lfingers 7.12502
lthumb 6.75288 54.6071
rfemur -21.974 -3.37509 15.1857
rtibia 25.4101
rfoot 1.04716 -8.8562
rtoes 7.67292
lfemur 11.8307 -8.72197 -25.7877
ltibia 18.9294
lfoot 13.1989 -24.5064
ltoes 12.8006
430
root -10.2079 18.0001 12.5538 -204.709 78.5326 154.89
lowerback 10.1325 -0.726591 -2.88588
upperback 1.03253 -1.24907 -0.124644
thorax -4.54602 -0.545471 1.66632
lowerneck -11.4991 0.454318 -11.9187
upperneck 44.5853 7.14772 2.28083
head 18.3807 2.15347 4.83245
rclavicle 6.36111e-015 -3.18055e-015
rhumerus -37.7964 -13.3837 -72.4798
rradius 26.9851
rwrist 7.00608
rhand -16.0905 7.05237
rfingers 7.12502
rthumb 10.1128 -22.6846
lclavicle 6.36111e-015 -3.18055e-015
lhumerus -26.0052 -0.378878 85.5953
lradius 39.3817
lwrist -5.28946
lhand -19.0055 24.3976
lfingers 7.12502
lthumb 7.29982 54.2517
rfemur -22.5573 -3.2497 14.8675
rtibia 25.0468
rfoot 1.74317 -8.6899
rtoes 8.32385
lfemur 11.8172 -8.06249 -26.0651
ltibia 18.1514
lfoot 11.6305 -24.5319
ltoes 12.1918
431
root -10.3728 17.9914 12.5375 -206.911 78.7438 152.6
lowerback 10.2786 -0.615211 -3.29878
upperback 1.06476 -1.1535 -0.20326
thorax -4.59195 -0.489638 1.80588
lowerneck -11.5279 0.461554 -11.9254
upperneck 44.5692 7.18095 2.22881
head 18.38 2.15561 4.8135
rclavicle -3.97569e-015 5.56597e-015
rhumerus -37.9607 -14.2328 -72
rradius 26.6256
rwrist 7.45374
rhand -16.3294 7.01643
rfingers 7.12502
rthumb 9.88239 -22.7316
lclavicle -3.97569e-015 5.56597e-015
lhumerus -25.4634 -0.678442 85.6578
lradius 39.7516
lwrist -5.28307
lhand -19.0501 24.6762
lfingers 7.12502
lthumb 7.25681 54.5317
rfemur -23.0197 -2.94199 14.3998
rtibia 24.5706
rfoot 2.52126 -8.57681
rtoes 8.58301
lfemur 11.8785 -7.75121 -26.5824
ltibia 17.3969
lfoot 10.6976 -23.5005
ltoes 15.8763
432
root -10.5355 17.9785 12.5264 -209.883 78.9608 149.604
lowerback 10.4281 -0.497009 -3.81153
upperback 1.15143 -1.06131 -0.349156
thorax -4.58295 -0.434853 1.93094
lowerneck -11.5911 0.477237 -11.8749
upperneck 44.5726 7.23539 2.13741
head 18.4036 2.1668 4.77236
rclavicle -2.68359e-015 2.38542e-014
rhumerus -38.0883 -15.0696 -71.6494
rradius 26.2726
rwrist 7.9048
rhand -16.4944 7.12254
rfingers 7.12502
rthumb 9.72322 -22.633
lclavicle -2.68359e-015 2.38542e-014
lhumerus -24.9486 -1.12833 85.6082
lradius 40.113
lwrist -4.93894
lhand -19.5123 24.6923
lfingers 7.12502
lthumb 6.81062 54.5627
rfemur -23.3564 -2.55575 13.8462
rtibia 24.0095
rfoot 3.35425 -8.56633
rtoes 9.74218
lfemur 11.9798 -7.20327 -27.1543
ltibia 16.636
lfoot 9.66823 -22.8539
ltoes 17.5339
433
root -10.6965 17.967 12.5143 -212.289 79.0856 147.152
lowerback 10.5626 -0.406352 -4.1612
upperback 1.19264 -0.990757 -0.518144
thorax -4.61603 -0.393016 1.94289
lowerneck -11.5499 0.474734 -11.8141
upperneck 44.5497 7.21411 2.09919
head 18.3847 2.16242 4.73555
rclavicle -8.64713e-015 4.77083e-015
rhumerus -38.3468 -15.6574 -71.3867
rradius 26.0626
rwrist 8.00115
rhand -16.3014 7.17213
rfingers 7.12502
rthumb 9.90936 -22.5747
lclavicle -8.64713e-015 4.77083e-015
lhumerus -24.4819 -1.6761 85.4988
lradius 40.3946
lwrist -4.50673
lhand -19.8695 24.7271
lfingers 7.12502
lthumb 6.46585 54.6084
rfemur -23.7096 -2.27795 13.3649
rtibia 23.4577
rfoot 4.0928 -8.73246
rtoes 10.818
lfemur 12.0228 -6.42601 -27.5323
ltibia 15.8081
lfoot 8.52883 -23.025
ltoes 16.1106
434
root -10.8521 17.9599 12.5034 -214.094 79.239 145.316
lowerback 10.6498 -0.32797 -4.48982
upperback 1.24987 -0.927221 -0.577605
thorax -4.60426 -0.355737 2.05732
lowerneck -11.5315 0.449139 -11.9001
upperneck 44.5305 7.21019 2.05645
head 18.3716 2.13932 4.72646
rclavicle -1.04362e-015 -3.18055e-015
rhumerus -38.495 -16.1973 -71.0814
rradius 25.7477
rwrist 8.23189
rhand -16.1099 7.05744
rfingers 7.12502
rthumb 10.0942 -22.6805
lclavicle -1.04362e-015 -3.18055e-015
lhumerus -24.0465 -2.03923 85.401
lradius 40.7307
lwrist -4.1098
lhand -20.1574 24.7763
lfingers 7.12502
lthumb 6.18788 54.6659
rfemur -24.0485 -1.93841 13.0004
rtibia 22.9408
rfoot 4.79745 -9.15822
rtoes 12.1822
lfemur 12.0036 -5.82989 -27.8005
ltibia 15.0535
lfoot 7.50188 -23.2537
ltoes 15.0843
435
root -11.0005 17.9555 12.4926 -216.196 79.3706 143.132
lowerback 10.6166 -0.296924 -4.86142
upperback 1.29913 -0.927239 -0.677036
thorax -4.52968 -0.35101 2.16145
lowerneck -11.4999 0.487418 -11.897
upperneck 44.5221 7.31281 1.94066
head 18.3591 2.16368 4.68436
rclavicle 3.17559e-014 1.59028e-015
rhumerus -38.5712 -16.965 -70.8304
rradius 25.273
rwrist 8.90654
rhand -16.1769 7.17033
rfingers 7.12502
rthumb 10.0295 -22.5707
lclavicle 3.17559e-014 1.59028e-015
lhumerus -23.792 -2.08126 85.1924
lradius 41.1353
lwrist -3.85029
lhand -20.2468 24.7094
lfingers 7.12502
lthumb 6.10155 54.6016
rfemur -24.4525 -1.81264 12.63
rtibia 22.521
rfoot 5.36461 -9.4089
rtoes 12.4934
lfemur 11.9167 -5.48659 -28.1436
ltibia 14.3066
lfoot 6.96897 -23.2367
ltoes 16.0111
436
root -11.1482 17.9479 12.4802 -218.406 79.3442 140.844
lowerback 10.6146 -0.267195 -5.22461
upperback 1.33879 -0.932885 -0.8737
thorax -4.48388 -0.348619 2.16027
lowerneck -11.425 0.516735 -11.9111
upperneck 44.5569 7.31105 2.04644
head 18.3491 2.1734 4.73413
rclavicle 2.80286e-014 -1.03368e-014
rhumerus -38.7593 -17.9471 -70.5777
rradius 24.8664
rwrist 9.5378
rhand -16.0623 7.31769
rfingers 7.12502
rthumb 10.1401 -22.418
lclavicle 2.80286e-014 -1.03368e-014
lhumerus -23.5698 -2.12789 84.9498
lradius 41.4874
lwrist -3.78436
lhand -20.3236 24.5578
lfingers 7.12502
lthumb 6.02745 54.4521
rfemur -24.842 -1.98111 12.2195
rtibia 22.2089
rfoot 5.51447 -9.52214
rtoes 11.5288
lfemur 11.7883 -5.0896 -28.5276
ltibia 13.5805
lfoot 6.41956 -23.4659
ltoes 15.9901
437
root -11.2909 17.9445 12.4636 -220.74 79.3316 138.483
lowerback 10.6356 -0.211471 -5.53681
upperback 1.37489 -0.899033 -1.06454
thorax -4.45829 -0.327009 2.13111
lowerneck -11.2925 0.501563 -11.9839
upperneck 44.5834 7.24777 2.15645
head 18.3242 2.15236 4.78352
rclavicle 1.28713e-014 -5.96354e-015
rhumerus -39.007 -18.9824 -70.2357
rradius 24.4679
rwrist 10.1915
rhand -15.8623 7.29588
rfingers 7.12502
rthumb 10.333 -22.4303
lclavicle 1.28713e-014 -5.96354e-015
lhumerus -23.3967 -2.14652 84.7378
lradius 41.7702
lwrist -3.86086
lhand -20.2314 24.3616
lfingers 7.12502
lthumb 6.11645 54.2533
rfemur -25.145 -2.05282 11.794
rtibia 21.9994
rfoot 5.10188 -9.77305
rtoes 10.4425
lfemur 11.6131 -4.53175 -28.9016
ltibia 13.063
lfoot 5.75995 -23.8753
ltoes 15.1427
438
root -11.4312 17.9468 12.4475 -221.712 79.4623 137.5
lowerback 10.6436 -0.189769 -5.5493
upperback 1.39799 -0.874024 -1.17283
thorax -4.44192 -0.314989 2.02126
lowerneck -11.1602 0.461372 -11.9218
upperneck 44.6616 7.18803 2.11857
head 18.3502 2.13316 4.74592
rclavicle -1.02374e-014 -2.62396e-014
rhumerus -39.3206 -19.888 -69.9827
rradius 24.1732
rwrist 10.7508
rhand -15.7999 7.33118
rfingers 7.12502
rthumb 10.3932 -22.392
lclavicle -1.02374e-014 -2.62396e-014
lhumerus -23.3435 -2.17574 84.4847
lradius 42.1189
lwrist -3.91842
lhand -19.895 24.2606
lfingers 7.12502
lthumb 6.44117 54.1427
rfemur -25.3926 -2.17146 11.7124
rtibia 21.8523
rfoot 4.30018 -9.93509
rtoes 8.19848
lfemur 11.2663 -4.04491 -28.9353
ltibia 12.8513
lfoot 5.3474 -24.3642
ltoes 15.4465
